<svg xmlns="http://www.w3.org/2000/svg" viewBox="0 0 102.71 118.48"><g id="ae41f6c6-ec79-4dcc-bf7a-ca909f9f440d" data-name="Layer 2"><g id="a4074121-3654-4e49-92f7-1f659006f396" data-name="Layer 1"><path d="M18.72,48.63S18.22,1,50.88,1,84.72,48.63,84.72,48.63s18-3.86,16.93,13.9,0,48.19,0,48.19-.93,7-6.54,6.76-89.78-1-89.78-1S.53,117.58,1,107.43,2.27,53.59,2.27,53.59a6.12,6.12,0,0,1,6.19-4.21A82.13,82.13,0,0,0,18.72,48.63Z" style="fill:#fff;stroke:#000;stroke-miterlimit:10;stroke-width:2px"/><path d="M30.05,50.79H74.5s1.16-39.3-23.15-39.3S30.05,50.79,30.05,50.79Z" style="fill:#fff;stroke:#000;stroke-miterlimit:10;stroke-width:4px"/><path d="M62.05,75.29a11.5,11.5,0,1,0-17,10.1v16.4h11V85.39A11.5,11.5,0,0,0,62.05,75.29Z" style="fill:#fff;stroke:#000;stroke-miterlimit:10;stroke-width:4px"/></g></g></svg>