<?xml version="1.0" encoding="utf-8"?>
<!-- Generator: Adobe Illustrator 25.3.1, SVG Export Plug-In . SVG Version: 6.00 Build 0)  -->
<svg version="1.1" id="Layer_1" xmlns="http://www.w3.org/2000/svg" xmlns:xlink="http://www.w3.org/1999/xlink" x="0px" y="0px"
	 viewBox="0 0 429.3 591.3" style="enable-background:new 0 0 429.3 591.3;" xml:space="preserve">
<style type="text/css">
	.st0{fill:#FFF9E1;}
	.st1{fill:#B27A86;}
	.st2{opacity:0.51;fill:#C2BCA3;}
	.st3{fill:#BFBBA9;}
	.st4{fill:#FFFEF9;}
	.st5{opacity:0.71;fill:#807D71;}
	.st6{fill:#865B64;}
	.st7{fill:#807D71;}
	.st8{fill:#403E38;}
</style>
<g>
	<path class="st0" d="M0.6,137.4c0,0-5.6,191.2,16.7,241.6s117,205.8,143.6,212.1c26.7,6.3,268.3-146.4,268.3-146.4L214.6,57
		l-167,29.7L0.6,137.4z"/>
	<path d="M150.1,276.4L150.1,276.4c14.1,0,25.5-11.4,25.5-25.5v0c0-14.1-11.4-25.5-25.5-25.5h0c-14.1,0-25.5,11.4-25.5,25.5v0
		C124.6,265,136.1,276.4,150.1,276.4z"/>
	<path d="M73.6,277.4L73.6,277.4c14.4,0,26-11.6,26-26v0c0-14.4-11.6-26-26-26h0c-14.4,0-26,11.6-26,26v0
		C47.6,265.8,59.3,277.4,73.6,277.4z"/>
	<path class="st1" d="M233.6,506.7L233.6,506.7l-77.5,18.5l-5.9-17l64.3-13.4C223.7,492.9,232.7,498.5,233.6,506.7z"/>
	<path class="st2" d="M246,339.9l-36.9-186.3c-2.2-11,5-21.8,16-24h0c11-2.2,21.8,5,24,16L286,332c2.2,11-5,21.8-16,24h0
		C258.9,358.2,248.2,351,246,339.9z"/>
	
		<rect x="319.3" y="388.9" transform="matrix(-0.5 -0.866 0.866 -0.5 123.4628 994.1744)" class="st3" width="58.9" height="145.1"/>
	<path class="st4" d="M50.6,137.4c-2,0-42.8,1.5-42.9,42.2s4.9,113.8,4.9,118.8S50.6,137.4,50.6,137.4z"/>
	<path class="st4" d="M63.6,401.4c0,0-9-5,26,55s62,111.4,62,111.4S-2.4,383.4,63.6,401.4z"/>
	<path class="st5" d="M211.6,125.4h-140c-13.3,0-24-10.7-24-24v0c0-13.3,10.7-24,24-24h140c13.3,0,24,10.7,24,24v0
		C235.6,114.7,224.9,125.4,211.6,125.4z"/>
	<path d="M215,83.4c1.2-0.1,2.3,0.7,2.4,1.9c3.2,23.2,32.3,229.9,51.2,260.1c20,32-4,10,66,21s-12.1,69.6-22.5,78.3
		c-10.5,8.7,116.8,5.3,117.2,0c0.4-5.3-16.2-330.3-61.9-360.3C323.7,55.8,135.8,4.6,119.2,0.1c-0.7-0.2-1.5,0-2.1,0.5L8.5,98.4
		c-1.6,1.4-0.4,4.1,1.7,3.9L215,83.4z"/>
	<path class="st6" d="M153.7,518c0,0,65.7-18.7,79.3-11.1"/>
	<path class="st3" d="M311.2,385c4-1.4,39.7-16.3,35,5.3c-4.6,21.5-7.1,31.4-27.7,32.6"/>
	<path class="st7" d="M304.7,392.5c1.8-1.3,36-21,35-5.7s-12.2,46.5-24.1,35.3"/>
	<path class="st8" d="M305.7,393.8c0,0,27.4-11.6,26.7,0c-0.7,11.6-13.7,24.2-18.7,21.9S305.7,393.8,305.7,393.8z"/>
</g>
</svg>
