<svg xmlns="http://www.w3.org/2000/svg" viewBox="0 0 172.32 162.39"><g id="bf3f4507-ab12-4c0f-a1c2-50f6c3eab143" data-name="Layer 2"><g id="fe167b12-aa3a-49be-9c01-7e2a380f7ae6" data-name="Layer 1"><path d="M26.57,136.82c-1.48-.23-20.81,0-20.81,0s-1-6.62-3.8-3.8,0,5.81,0,5.81-3.39,2.49-1.25,5.31C5,143.85,4.33,141,5.81,141s20.76.17,20.76.17Z" style="fill:#a8afbf"/><path d="M134.35,23.49s-3.94-6.57-2.83-7.65,6.6.69,6.62.21" style="fill:#a8afbf"/><path d="M124.58,47.37s-3.94-6.57-2.83-7.65,6.6.69,6.62.21" style="fill:#a8afbf"/><path d="M130.87,31.23s-3.94-6.56-2.83-7.65,6.6.7,6.62.22" style="fill:#a8afbf"/><path d="M127.36,39.62s-3.94-6.57-2.83-7.65,6.6.69,6.62.21" style="fill:#a8afbf"/><path d="M121.76,54.35s-3.93-6.57-2.82-7.65,6.6.69,6.61.21" style="fill:#a8afbf"/><path d="M118.45,70s-5-5.78-4.12-7,6.62-.47,6.56-.95" style="fill:#a8afbf"/><path d="M115.65,77s-5-5.78-4.12-7,6.62-.48,6.55-.95" style="fill:#a8afbf"/><path d="M89.19,97s-.42-7.65,1.06-8.09S95.77,92.61,96,92.2" style="fill:#a8afbf"/><path d="M112.28,86s-3.53-6.8-2.36-7.81,6.55,1.1,6.6.62" style="fill:#a8afbf"/><path d="M108,94.2s-2.46-7.26-1.14-8.08,6.3,2.08,6.42,1.61" style="fill:#a8afbf"/><path d="M96.8,95.61s1.08-7.59,2.62-7.73,4.69,4.7,5,4.34" style="fill:#a8afbf"/><path d="M120,62.59s-5-5.78-4.12-7,6.62-.48,6.56-1" style="fill:#a8afbf"/><path d="M163.15,7.25c-4-1.34-8.4-14.71-21-1.4-11.41,12-28,71.69-31,82.93a2.47,2.47,0,0,1-2.39,1.81c-45.62.09-66.8,28.12-70.94,34.33-2.7,4-10,7.11-15.41,8.68v11.31c25.43-1.38,30.29-10.29,35.72-13.68,4.78-3,8.94,21.61,10,28.89a2.44,2.44,0,0,0,2.33,2.07c3.8.15,11.7.4,12.52-.08s1.8-11.83,2-15.18a2.43,2.43,0,0,1,.73-1.58c2.54-2.48,11.66-11.43,14.85-15.41a2.61,2.61,0,0,0,.31-.54c2.44-5.56,7.47,20.35,8.87,28a2.46,2.46,0,0,0,2.47,2l9.1-.18a2.47,2.47,0,0,0,2.39-2.17l2-16.48a2.4,2.4,0,0,1,.4-1.09c1.93-2.83,11.72-17.57,17.39-32.05,3.3-8.44.7-38.52.7-54.63,0-3.13-.36-34.85,4.9-32.22,2.8,1.4,22.42-.7,23.12-4.9C173,11.29,167.35,8.65,163.15,7.25Z" style="fill:#1d363a"/><circle cx="154.75" cy="6.55" r="2.1" style="fill:#a8afbf"/></g></g></svg>