<svg xmlns="http://www.w3.org/2000/svg" xmlns:xlink="http://www.w3.org/1999/xlink" width="103.9" height="149.411" viewBox="0 0 103.9 149.411">
  <defs>
    <linearGradient id="linear-gradient" y1="0.5" x2="1" y2="0.5" gradientUnits="objectBoundingBox">
      <stop offset="0" stop-color="#ffcc17"/>
      <stop offset="1" stop-color="#f98800"/>
    </linearGradient>
  </defs>
  <g id="Group_2980" data-name="Group 2980" transform="translate(-135.715 -74.194)">
    <g id="Group_21" data-name="Group 21" transform="translate(138.715 77.194)">
      <path id="Path_54" data-name="Path 54" d="M-655.029,530.582v72.409a12.745,12.745,0,0,1-12.746,12.744h-72.409a12.744,12.744,0,0,1-12.744-12.744V530.582a12.744,12.744,0,0,1,12.744-12.746h72.409A12.746,12.746,0,0,1-655.029,530.582Z" transform="translate(752.929 -517.836)" fill="#fff"/>
      <g id="Path_55" data-name="Path 55" transform="translate(752.929 -517.836)" fill="none" stroke-miterlimit="10">
        <path d="M-655.029,530.582v72.409a12.745,12.745,0,0,1-12.746,12.744h-72.409a12.744,12.744,0,0,1-12.744-12.744V530.582a12.744,12.744,0,0,1,12.744-12.746h72.409A12.746,12.746,0,0,1-655.029,530.582Z" stroke="none"/>
        <path d="M -740.1846923828125 517.8359985351562 C -747.224853515625 517.8359985351562 -752.9290771484375 523.5422973632812 -752.9290771484375 530.5824584960938 L -752.9290771484375 602.9915771484375 C -752.9290771484375 610.0294189453125 -747.224853515625 615.7356567382812 -740.1846923828125 615.7356567382812 L -667.7755126953125 615.7356567382812 C -660.7354736328125 615.7356567382812 -655.029052734375 610.0294189453125 -655.029052734375 602.9915771484375 L -655.029052734375 530.5824584960938 C -655.029052734375 523.5422973632812 -660.7354736328125 517.8359985351562 -667.7755126953125 517.8359985351562 L -740.1846923828125 517.8359985351562 M -740.1846923828125 514.8359985351562 L -667.7755126953125 514.8359985351562 C -665.6510009765625 514.8359985351562 -663.5885009765625 515.252685546875 -661.645263671875 516.0745239257812 C -659.769775390625 516.8677978515625 -658.0861206054688 518.002685546875 -656.6409912109375 519.4478149414062 C -655.19580078125 520.8929443359375 -654.0608520507812 522.57666015625 -653.2676391601562 524.4521484375 C -652.44580078125 526.3953857421875 -652.029052734375 528.4578857421875 -652.029052734375 530.5824584960938 L -652.029052734375 602.9915771484375 C -652.029052734375 605.1156005859375 -652.44580078125 607.1777954101562 -653.2677612304688 609.1207275390625 C -654.0609741210938 610.9959106445312 -655.1959838867188 612.6793212890625 -656.64111328125 614.124267578125 C -658.0862426757812 615.5692138671875 -659.7698974609375 616.7040405273438 -661.6453247070312 617.4971313476562 C -663.5885620117188 618.3189697265625 -665.6510620117188 618.7356567382812 -667.7755126953125 618.7356567382812 L -740.1846923828125 618.7356567382812 C -742.3092041015625 618.7356567382812 -744.3716430664062 618.3189697265625 -746.314697265625 617.4971313476562 C -748.1900024414062 616.7039184570312 -749.8734741210938 615.569091796875 -751.318359375 614.1240234375 C -752.76318359375 612.6790771484375 -753.8978881835938 610.99560546875 -754.6908569335938 609.1204223632812 C -755.5125122070312 607.1776123046875 -755.9290771484375 605.1155395507812 -755.9290771484375 602.9915771484375 L -755.9290771484375 530.5824584960938 C -755.9290771484375 528.4580078125 -755.5125122070312 526.3955688476562 -754.6909790039062 524.4524536132812 C -753.8980102539062 522.576904296875 -752.7633056640625 520.8931884765625 -751.3184814453125 519.4480590820312 C -749.8735961914062 518.0028686523438 -748.1901245117188 516.8678588867188 -746.3147583007812 516.0745849609375 C -744.3717041015625 515.2527465820312 -742.3092651367188 514.8359985351562 -740.1846923828125 514.8359985351562 Z" stroke="none" fill="#ffcc17"/>
      </g>
      <path id="Path_56" data-name="Path 56" d="M-500.2,724.838v36.194a12.745,12.745,0,0,1-12.747,12.744h-37.2a48.8,48.8,0,0,1,14.338-34.612A48.789,48.789,0,0,1-501.2,724.826C-500.866,724.826-500.534,724.828-500.2,724.838Z" transform="translate(598.103 -675.876)" opacity="0.5" fill="url(#linear-gradient)"/>
      <g id="Group_19" data-name="Group 19" transform="translate(27.855 21)">
        <path id="Path_57" data-name="Path 57" d="M-582.647,580.937a23.422,23.422,0,0,0-1.72,4.413v.005a12.781,12.781,0,0,0-4-.642c-.4,0-.8.019-1.189.056a15.57,15.57,0,0,1-5.558-14.445A15.584,15.584,0,0,1-582.647,580.937Z" transform="translate(604.716 -569.662)" fill="#76b035"/>
        <path id="Path_58" data-name="Path 58" d="M-587.279,573.943a15.506,15.506,0,0,0-7.833-3.618,15.591,15.591,0,0,0-.068,4.254,15.482,15.482,0,0,1,6.226,3.285,15.644,15.644,0,0,1,4.632,6.993c-.074.145-.148.294-.221.444.058.018.116.034.174.053v-.005a23.411,23.411,0,0,1,1.72-4.413A15.647,15.647,0,0,0-587.279,573.943Z" transform="translate(604.716 -569.662)" fill="#689331"/>
        <path id="Path_59" data-name="Path 59" d="M-610.929,632.321a12.783,12.783,0,0,1,3.766-.568c8.665,0,15.689,8.76,15.689,19.566s-7.024,19.567-15.689,19.567a12.933,12.933,0,0,1-5.482-1.228h0a12.813,12.813,0,0,1-4,.642c-8.665,0-15.689-8.76-15.689-19.566,0-10.307,6.39-18.753,14.5-19.511.392-.038.79-.056,1.189-.056a12.782,12.782,0,0,1,4,.642,13.425,13.425,0,0,1,1.487.587c.077-.026.157-.051.235-.075Z" transform="translate(633 -616.116)" fill="url(#linear-gradient)"/>
        <path id="Path_60" data-name="Path 60" d="M-622.3,650.674c0-8.5,4-15.788,9.687-18.852l-.039-.013a12.782,12.782,0,0,0-4-.642c-.4,0-.8.019-1.189.056-8.11.757-14.5,9.2-14.5,19.511,0,10.806,7.024,19.566,15.689,19.566a12.813,12.813,0,0,0,4-.642h0a13.319,13.319,0,0,0,2.162.788C-617.275,668.2-622.3,660.2-622.3,650.674Z" transform="translate(633 -616.116)" fill="url(#linear-gradient)"/>
        <g id="Group_17" data-name="Group 17" transform="translate(0.663 15.094)" opacity="0.5">
          <path id="Path_61" data-name="Path 61" d="M-624.082,658.441c-5.22-10.06-3.826-21.248,2.989-25.723l3.419-1.369-.163.013c-8.11.757-14.5,9.2-14.5,19.511,0,10.806,7.024,19.566,15.689,19.566a12.809,12.809,0,0,0,3.748-.564A25.94,25.94,0,0,1-624.082,658.441Z" transform="translate(632.337 -631.349)" fill="#a56934"/>
        </g>
        <path id="Path_62" data-name="Path 62" d="M-547.374,596.021a21.532,21.532,0,0,1,4.347-5.94l2.959,1.695a20.621,20.621,0,0,0-7.306,9.175c-.078.024-.158.049-.235.075a13.434,13.434,0,0,0-1.487-.587v-.005a23.408,23.408,0,0,1,1.72-4.413Z" transform="translate(569.443 -584.746)" fill="#97c447"/>
        <g id="Group_18" data-name="Group 18">
          <path id="Path_63" data-name="Path 63" d="M-618.787,622.369a13.471,13.471,0,0,0,3.965-.6,13.6,13.6,0,0,0,5.519,1.186,14.865,14.865,0,0,0,11.611-5.979,22.768,22.768,0,0,0,4.741-14.25,22.771,22.771,0,0,0-4.741-14.25A14.866,14.866,0,0,0-609.3,582.5a13.284,13.284,0,0,0-2.617.261,20.2,20.2,0,0,1,6.508-7.645.663.663,0,0,0,.209-.914.663.663,0,0,0-.232-.222l-2.959-1.7a.662.662,0,0,0-.767.077,21.051,21.051,0,0,0-3.8,4.852,16.227,16.227,0,0,0-12.473-9.681.663.663,0,0,0-.755.554h0a16.231,16.231,0,0,0,.941,8.423,16.339,16.339,0,0,0,3.777,5.674,15.443,15.443,0,0,0-8.927,5.709,22.771,22.771,0,0,0-4.741,14.25,22.77,22.77,0,0,0,4.741,14.25,14.866,14.866,0,0,0,11.611,5.979Zm10.166-48.691,1.632.936a21.518,21.518,0,0,0-6.5,8.384q-.247-.1-.5-.2A22.884,22.884,0,0,1-608.621,573.678Zm-15.4,2.342a14.892,14.892,0,0,1-.951-7.062,14.907,14.907,0,0,1,11.179,9.787,24.151,24.151,0,0,0-1.452,3.643,13.409,13.409,0,0,0-3.547-.477c-.326,0-.65.013-.972.036a15.009,15.009,0,0,1-4.257-5.928Zm4.108,7.269h0q.554-.052,1.118-.053a12.119,12.119,0,0,1,3.691.576c-4.8,2.254-8.6,7.234-9.992,13.611a.662.662,0,0,0,.5.794.663.663,0,0,0,.794-.5l0-.013c1.457-6.667,5.69-11.693,10.859-13.322a.634.634,0,0,0,.108-.033,12.052,12.052,0,0,1,3.524-.53c8.286,0,15.027,8.481,15.027,18.9s-6.741,18.9-15.027,18.9a13.326,13.326,0,0,1-9.606-4.372.663.663,0,0,0-.937-.02.662.662,0,0,0-.021.934,16.446,16.446,0,0,0,3.28,2.667,12.139,12.139,0,0,1-2.2.2c-8.286,0-15.027-8.481-15.027-18.9,0-9.949,6.141-18.128,13.906-18.851Z" transform="translate(635.139 -567.522)" fill="#151515"/>
          <path id="Path_64" data-name="Path 64" d="M-618.391,716.623a23.575,23.575,0,0,1-.5-4.854.662.662,0,0,0-.662-.662.663.663,0,0,0-.663.662,24.9,24.9,0,0,0,.529,5.127,23.125,23.125,0,0,0,1.5,4.647.662.662,0,0,0,.877.331.663.663,0,0,0,.333-.871A21.769,21.769,0,0,1-618.391,716.623Z" transform="translate(623.746 -677.151)" fill="#151515"/>
        </g>
      </g>
    </g>
    <g id="Group_16" data-name="Group 16" transform="translate(140.019 191.886)">
      <text id="مو_بس_مشمش" data-name="مو بس مشمش" transform="translate(35.33 29.719)" fill="#8b8b8b" font-size="9" font-family="CoconNextArabic-Light, CoconÆ Next Arabic" font-weight="300"><tspan x="0" y="0">مو بس مشمش</tspan></text>
      <text id="MSHMSH" transform="translate(0 19)" fill="#8b8b8b" font-size="23" font-family="CoconNextArabic-Light, CoconÆ Next Arabic" font-weight="300"><tspan x="0" y="0">MSHMSH</tspan></text>
    </g>
  </g>
</svg>
